# xmcd CD database file
# Copyright (C) 1997 Ti Kan
# 
# Track frame offsets:
#     150
#     19507
#     40507
#     67007
#     86352
#     114520
#     133945
#     153072
#     172505
#     187540
#     206700
#     218292
# 
# Disc length: 2987 seconds
# 
# Revision: 1
# Processed by: cddbd v1.4b41PL1 Copyright (c) Steve Scherf et al.
# Submitted via: DiscPlay 4.0.4
# 
DISCID=840ba90c
DTITLE=Toquinho - Trinta Anos De Musica
DYEAR=1900
DGENRE=
TTITLE0=Tarde Em Itapo 
TTITLE1=Lua Cheia
TTITLE2=Como Dizia O Poeta
TTITLE3=Na Boca Da Noite
TTITLE4=Escravo Da Alegria
TTITLE5=Aquarela
TTITLE6=Que Maravilha
TTITLE7=O Velho E A Flor
TTITLE8=O Bem Amado
TTITLE9=Maria Vai Com As Outras
TTITLE10=Carta Ao Tom
TTITLE11=Cotidiano
EXTD=
EXTT0=
EXTT1=Samba De Orly\nSamba Pra Vin cius\n
EXTT2=Morena Flor\nSamba Da Volta\nRegra Tr s\n
EXTT3=Mais Um Adeus\n
EXTT4=Ao Que Vai Chegar\nO Caderno\n
EXTT5=
EXTT6=
EXTT7=
EXTT8=
EXTT9=Meu Pai Oxal \n
EXTT10=
EXTT11=
PLAYORDER=
